# xmcd
#
# Track frame offsets:
#	150
#	38677
#	54472
#	70167
#	100837
#	154830
#	188410
#	200017
#	215942
#	230302
#	260827
#
# Disc length: 3737 seconds
#
# Revision: 1
# Processed by: cddbd v1.5.2PL0 Copyright (c) Steve Scherf et al.
# Submitted via: audiograbber 1.83.01
#
DISCID=9c0e970b
DTITLE=Toad - Toad
DYEAR=1971
DGENRE=Rock
TTITLE0=Cotton Wood Hill
TTITLE1=A Life That Ain't Worth Living
TTITLE2=Tank
TTITLE3=They Say I'm Mad
TTITLE4=Life Goes On
TTITLE5=Pig's Walk
TTITLE6=The One I Mean
TTITLE7=Stay
TTITLE8=Animals World
TTITLE9=Fly
TTITLE10=Purple Haze
EXTD=
EXTT0=
EXTT1=
EXTT2=
EXTT3=
EXTT4=
EXTT5=
EXTT6=
EXTT7=
EXTT8=
EXTT9=
EXTT10=
PLAYORDER=
